<svg id="SvgjsSvg1238" width="997.2500228881836" height="426.49999618530273" xmlns="http://www.w3.org/2000/svg" version="1.1" xmlns:xlink="http://www.w3.org/1999/xlink" xmlns:svgjs="http://svgjs.com/svgjs"><defs id="SvgjsDefs1239"><marker id="SvgjsMarker1312" markerWidth="20" markerHeight="16" refX="7" refY="8" viewBox="0 0 20 16" orient="auto" markerUnits="userSpaceOnUse" stroke-dasharray="0,0"><path id="SvgjsPath1313" d="M20,0 L0,8 L20,16 L20,0" fill="#323232" stroke="#323232" stroke-width="1"></path></marker><marker id="SvgjsMarker1314" markerWidth="20" markerHeight="16" refX="13" refY="8" viewBox="0 0 20 16" orient="auto" markerUnits="userSpaceOnUse" stroke-dasharray="0,0"><path id="SvgjsPath1315" d="M0,0 L20,8 L0,16 L0,0" fill="#323232" stroke="#323232" stroke-width="1"></path></marker><marker id="SvgjsMarker1322" markerWidth="14" markerHeight="10" refX="10" refY="5" viewBox="0 0 14 10" orient="auto" markerUnits="userSpaceOnUse" stroke-dasharray="0,0"><path id="SvgjsPath1323" d="M0,0 L14,5 L0,10 L0,0" fill="#323232" stroke="#323232" stroke-width="1"></path></marker><marker id="SvgjsMarker1326" markerWidth="14" markerHeight="10" refX="10" refY="5" viewBox="0 0 14 10" orient="auto" markerUnits="userSpaceOnUse" stroke-dasharray="0,0"><path id="SvgjsPath1327" d="M0,0 L14,5 L0,10 L0,0" fill="#323232" stroke="#323232" stroke-width="1"></path></marker><marker id="SvgjsMarker1330" markerWidth="14" markerHeight="10" refX="4" refY="5" viewBox="0 0 14 10" orient="auto" markerUnits="userSpaceOnUse" stroke-dasharray="0,0"><path id="SvgjsPath1331" d="M14,0 L0,5 L14,10 L14,0" fill="#323232" stroke="#323232" stroke-width="1"></path></marker><marker id="SvgjsMarker1332" markerWidth="14" markerHeight="10" refX="10" refY="5" viewBox="0 0 14 10" orient="auto" markerUnits="userSpaceOnUse" stroke-dasharray="0,0"><path id="SvgjsPath1333" d="M0,0 L14,5 L0,10 L0,0" fill="#323232" stroke="#323232" stroke-width="1"></path></marker><marker id="SvgjsMarker1336" markerWidth="14" markerHeight="10" refX="10" refY="5" viewBox="0 0 14 10" orient="auto" markerUnits="userSpaceOnUse" stroke-dasharray="0,0"><path id="SvgjsPath1337" d="M0,0 L14,5 L0,10 L0,0" fill="#323232" stroke="#323232" stroke-width="1"></path></marker><marker id="SvgjsMarker1340" markerWidth="14" markerHeight="10" refX="10" refY="5" viewBox="0 0 14 10" orient="auto" markerUnits="userSpaceOnUse" stroke-dasharray="0,0"><path id="SvgjsPath1341" d="M0,0 L14,5 L0,10 L0,0" fill="#323232" stroke="#323232" stroke-width="1"></path></marker><marker id="SvgjsMarker1344" markerWidth="14" markerHeight="10" refX="10" refY="5" viewBox="0 0 14 10" orient="auto" markerUnits="userSpaceOnUse" stroke-dasharray="0,0"><path id="SvgjsPath1345" d="M0,0 L14,5 L0,10 L0,0" fill="#323232" stroke="#323232" stroke-width="1"></path></marker><marker id="SvgjsMarker1348" markerWidth="14" markerHeight="10" refX="10" refY="5" viewBox="0 0 14 10" orient="auto" markerUnits="userSpaceOnUse" stroke-dasharray="0,0"><path id="SvgjsPath1349" d="M0,0 L14,5 L0,10 L0,0" fill="#323232" stroke="#323232" stroke-width="1"></path></marker><marker id="SvgjsMarker1352" markerWidth="14" markerHeight="10" refX="10" refY="5" viewBox="0 0 14 10" orient="auto" markerUnits="userSpaceOnUse" stroke-dasharray="0,0"><path id="SvgjsPath1353" d="M0,0 L14,5 L0,10 L0,0" fill="#323232" stroke="#323232" stroke-width="1"></path></marker></defs><g id="SvgjsG1240" transform="translate(581.0000152587891,24.99998664855957)"><path id="SvgjsPath1241" d="M 0 0L 391 0L 391 372L 0 372Z" stroke="rgba(190,179,175,1)" stroke-width="2" fill="none"></path><path id="SvgjsPath1242" d="M 0 0L 391 0L 391 40L 0 40Z" stroke="rgba(190,179,175,1)" stroke-width="2" fill-opacity="1" fill="#bfbfbf"></path><g id="SvgjsG1243"><text id="SvgjsText1244" font-family="苍耳与墨" text-anchor="middle" font-size="20px" width="371px" fill="#323232" font-weight="700" align="middle" lineHeight="125%" anchor="middle" family="苍耳与墨" size="20px" weight="700" font-style="" opacity="1" y="2" transform="rotate(0)"><tspan id="SvgjsTspan1245" dy="25" x="195.5"><tspan id="SvgjsTspan1246" style="text-decoration:;">Server</tspan></tspan></text></g></g><g id="SvgjsG1247" transform="translate(26.000015258789062,28.99998664855957)"><path id="SvgjsPath1248" d="M 0 0L 391 0L 391 373L 0 373Z" stroke="rgba(190,179,175,1)" stroke-width="2" fill="none"></path><path id="SvgjsPath1249" d="M 0 0L 391 0L 391 40L 0 40Z" stroke="rgba(190,179,175,1)" stroke-width="2" fill-opacity="1" fill="#bfbfbf"></path><g id="SvgjsG1250"><text id="SvgjsText1251" font-family="苍耳与墨" text-anchor="middle" font-size="20px" width="371px" fill="#323232" font-weight="700" align="middle" lineHeight="125%" anchor="middle" family="苍耳与墨" size="20px" weight="700" font-style="" opacity="1" y="2" transform="rotate(0)"><tspan id="SvgjsTspan1252" dy="25" x="195.5"><tspan id="SvgjsTspan1253" style="text-decoration:;">Client</tspan></tspan></text></g></g><g id="SvgjsG1254" transform="translate(26.000015258789062,64.99998664855957)"><path id="SvgjsPath1255" d="M 0 0L 391 0L 391 336L 0 336Z" stroke="rgba(239,184,27,1)" stroke-width="2" fill-opacity="1" fill="#f6eed1"></path><g id="SvgjsG1256"><text id="SvgjsText1257" font-family="苍耳与墨" text-anchor="middle" font-size="13px" width="371px" fill="#323232" font-weight="400" align="middle" lineHeight="125%" anchor="middle" family="苍耳与墨" size="13px" weight="400" font-style="" opacity="1" y="157.375" transform="rotate(0)"></text></g></g><g id="SvgjsG1258" transform="translate(151.00001525878906,85.99998664855957)"><path id="SvgjsPath1259" d="M 0 30.5C 0 -10.166666666666666 138 -10.166666666666666 138 30.5C 138 71.16666666666667 0 71.16666666666667 0 30.5Z" stroke="rgba(239,184,27,1)" stroke-width="2" fill-opacity="1" fill="#f6eed1"></path><g id="SvgjsG1260"><text id="SvgjsText1261" font-family="苍耳与墨" text-anchor="middle" font-size="20px" width="118px" fill="#323232" font-weight="700" align="middle" lineHeight="125%" anchor="middle" family="苍耳与墨" size="20px" weight="700" font-style="" opacity="1" y="12.5" transform="rotate(0)"><tspan id="SvgjsTspan1262" dy="25" x="69"><tspan id="SvgjsTspan1263" style="text-decoration:;">响应</tspan></tspan></text></g></g><g id="SvgjsG1264" transform="translate(41.00001525878906,202.99998664855957)"><path id="SvgjsPath1265" d="M 0 30.5C 0 -10.166666666666666 138 -10.166666666666666 138 30.5C 138 71.16666666666667 0 71.16666666666667 0 30.5Z" stroke="rgba(239,184,27,1)" stroke-width="2" fill-opacity="1" fill="#f6eed1"></path><g id="SvgjsG1266"><text id="SvgjsText1267" font-family="苍耳与墨" text-anchor="middle" font-size="20px" width="118px" fill="#323232" font-weight="700" align="middle" lineHeight="125%" anchor="middle" family="苍耳与墨" size="20px" weight="700" font-style="" opacity="1" y="12.5" transform="rotate(0)"><tspan id="SvgjsTspan1268" dy="25" x="69"><tspan id="SvgjsTspan1269" style="text-decoration:;">棋盘 UI</tspan></tspan></text></g></g><g id="SvgjsG1270" transform="translate(279.00001525878906,200.99998664855957)"><path id="SvgjsPath1271" d="M 0 30.5C 0 -10.166666666666666 138 -10.166666666666666 138 30.5C 138 71.16666666666667 0 71.16666666666667 0 30.5Z" stroke="rgba(239,184,27,1)" stroke-width="2" fill-opacity="1" fill="#f6eed1"></path><g id="SvgjsG1272"><text id="SvgjsText1273" font-family="苍耳与墨" text-anchor="middle" font-size="20px" width="118px" fill="#323232" font-weight="700" align="middle" lineHeight="125%" anchor="middle" family="苍耳与墨" size="20px" weight="700" font-style="" opacity="1" y="12.5" transform="rotate(0)"><tspan id="SvgjsTspan1274" dy="25" x="69"><tspan id="SvgjsTspan1275" style="text-decoration:;">网络代理</tspan></tspan></text></g></g><g id="SvgjsG1276" transform="translate(151.00001525878906,305.99998664855957)"><path id="SvgjsPath1277" d="M 0 30.5C 0 -10.166666666666666 138 -10.166666666666666 138 30.5C 138 71.16666666666667 0 71.16666666666667 0 30.5Z" stroke="rgba(239,184,27,1)" stroke-width="2" fill-opacity="1" fill="#f6eed1"></path><g id="SvgjsG1278"><text id="SvgjsText1279" font-family="苍耳与墨" text-anchor="middle" font-size="20px" width="118px" fill="#323232" font-weight="700" align="middle" lineHeight="125%" anchor="middle" family="苍耳与墨" size="20px" weight="700" font-style="" opacity="1" y="12.5" transform="rotate(0)"><tspan id="SvgjsTspan1280" dy="25" x="69"><tspan id="SvgjsTspan1281" style="text-decoration:;">对局数据</tspan></tspan></text></g></g><g id="SvgjsG1282" transform="translate(581.0000152587891,64.99998664855957)"><path id="SvgjsPath1283" d="M 0 0L 391 0L 391 336L 0 336Z" stroke="rgba(239,184,27,1)" stroke-width="2" fill-opacity="1" fill="#f6eed1"></path><g id="SvgjsG1284"><text id="SvgjsText1285" font-family="苍耳与墨" text-anchor="middle" font-size="13px" width="371px" fill="#323232" font-weight="400" align="middle" lineHeight="125%" anchor="middle" family="苍耳与墨" size="13px" weight="400" font-style="" opacity="1" y="157.375" transform="rotate(0)"></text></g></g><g id="SvgjsG1286" transform="translate(813.0000152587891,200.99998664855957)"><path id="SvgjsPath1287" d="M 0 30.5C 0 -10.166666666666666 138 -10.166666666666666 138 30.5C 138 71.16666666666667 0 71.16666666666667 0 30.5Z" stroke="rgba(239,184,27,1)" stroke-width="2" fill-opacity="1" fill="#f6eed1"></path><g id="SvgjsG1288"><text id="SvgjsText1289" font-family="苍耳与墨" text-anchor="middle" font-size="20px" width="118px" fill="#323232" font-weight="700" align="middle" lineHeight="125%" anchor="middle" family="苍耳与墨" size="20px" weight="700" font-style="" opacity="1" y="12.5" transform="rotate(0)"><tspan id="SvgjsTspan1290" dy="25" x="69"><tspan id="SvgjsTspan1291" style="text-decoration:;">数据</tspan></tspan></text></g></g><g id="SvgjsG1292" transform="translate(697.0000152587891,85.99998664855957)"><path id="SvgjsPath1293" d="M 0 30.5C 0 -10.166666666666666 138 -10.166666666666666 138 30.5C 138 71.16666666666667 0 71.16666666666667 0 30.5Z" stroke="rgba(239,184,27,1)" stroke-width="2" fill-opacity="1" fill="#f6eed1"></path><g id="SvgjsG1294"><text id="SvgjsText1295" font-family="苍耳与墨" text-anchor="middle" font-size="20px" width="118px" fill="#323232" font-weight="700" align="middle" lineHeight="125%" anchor="middle" family="苍耳与墨" size="20px" weight="700" font-style="" opacity="1" y="12.5" transform="rotate(0)"><tspan id="SvgjsTspan1296" dy="25" x="69"><tspan id="SvgjsTspan1297" style="text-decoration:;">对局计算</tspan></tspan></text></g></g><g id="SvgjsG1298" transform="translate(813.0000152587891,315.99998664855957)"><path id="SvgjsPath1299" d="M 0 30.5C 0 -10.166666666666666 138 -10.166666666666666 138 30.5C 138 71.16666666666667 0 71.16666666666667 0 30.5Z" stroke="rgba(239,184,27,1)" stroke-width="2" fill-opacity="1" fill="#f6eed1"></path><g id="SvgjsG1300"><text id="SvgjsText1301" font-family="苍耳与墨" text-anchor="middle" font-size="20px" width="118px" fill="#323232" font-weight="700" align="middle" lineHeight="125%" anchor="middle" family="苍耳与墨" size="20px" weight="700" font-style="" opacity="1" y="12.5" transform="rotate(0)"><tspan id="SvgjsTspan1302" dy="25" x="69"><tspan id="SvgjsTspan1303" style="text-decoration:;">文件同步</tspan></tspan></text></g></g><g id="SvgjsG1304" transform="translate(581.0000152587891,200.99998664855957)"><path id="SvgjsPath1305" d="M 0 30.5C 0 -10.166666666666666 138 -10.166666666666666 138 30.5C 138 71.16666666666667 0 71.16666666666667 0 30.5Z" stroke="rgba(239,184,27,1)" stroke-width="2" fill-opacity="1" fill="#f6eed1"></path><g id="SvgjsG1306"><text id="SvgjsText1307" font-family="苍耳与墨" text-anchor="middle" font-size="20px" width="118px" fill="#323232" font-weight="700" align="middle" lineHeight="125%" anchor="middle" family="苍耳与墨" size="20px" weight="700" font-style="" opacity="1" y="12.5" transform="rotate(0)"><tspan id="SvgjsTspan1308" dy="25" x="69"><tspan id="SvgjsTspan1309" style="text-decoration:;">网络服务</tspan></tspan></text></g></g><g id="SvgjsG1310"><path id="SvgjsPath1311" d="M424.50001525878906 229.99998664855957L498.75001525878906 229.99998664855957L498.75001525878906 229.99998664855957L573.5000152587891 229.99998664855957" stroke-dasharray="3,3" stroke="#323232" stroke-width="5" fill="none" marker-start="url(#SvgjsMarker1312)" marker-end="url(#SvgjsMarker1314)"></path><rect id="SvgjsRect1316" width="98" height="23" x="449.0751939444707" y="201.99998664855957" fill="#ffffff"></rect><text id="SvgjsText1317" font-family="苍耳与墨" text-anchor="middle" font-size="18px" width="98px" fill="#323232" font-weight="400" align="top" lineHeight="23px" anchor="middle" family="苍耳与墨" size="18px" weight="400" font-style="" opacity="1" y="197.74998664855957" transform="rotate(0)"><tspan id="SvgjsTspan1318" dy="22" x="498.0751939444707"><tspan id="SvgjsTspan1319" style="text-decoration:;">socket 通信</tspan></tspan></text></g><g id="SvgjsG1320"><path id="SvgjsPath1321" d="M836.0000152587891 116.99998664855957L882.0000152587891 116.99998664855957L882.0000152587891 197.39998664855955" stroke="#323232" stroke-width="2" fill="none" marker-end="url(#SvgjsMarker1322)"></path></g><g id="SvgjsG1324"><path id="SvgjsPath1325" d="M882.0000152587891 262.99998664855957L882.0000152587891 288.99998664855957L882.0000152587891 288.99998664855957L882.0000152587891 312.39998664855955" stroke="#323232" stroke-width="2" fill="none" marker-end="url(#SvgjsMarker1326)"></path></g><g id="SvgjsG1328"><path id="SvgjsPath1329" d="M347.952650937656 264.5996750546697L347.00001525878906 336.99998664855957L292.6000152587891 336.99998664855957" stroke="#323232" stroke-width="2" fill="none" marker-start="url(#SvgjsMarker1330)" marker-end="url(#SvgjsMarker1332)"></path></g><g id="SvgjsG1334"><path id="SvgjsPath1335" d="M150.00001525878906 336.99998664855957L109.00001525878906 336.99998664855957L109.95070481669197 267.59964892164857" stroke="#323232" stroke-width="2" fill="none" marker-end="url(#SvgjsMarker1336)"></path></g><g id="SvgjsG1338"><path id="SvgjsPath1339" d="M219.96432372827667 147.9993495029071L219.000015258789 174.99998664855957L109.00001525878906 174.99998664855957L109.87152574894438 199.40228037290836" stroke="#323232" stroke-width="2" fill="none" marker-end="url(#SvgjsMarker1340)"></path></g><g id="SvgjsG1342"><path id="SvgjsPath1343" d="M219.9874376374231 147.99990754715145L219.00001525878906 226.49998664855957L219.00001525878906 226.49998664855957L219.95473582187168 302.40027141362884" stroke="#323232" stroke-width="2" fill="none" marker-end="url(#SvgjsMarker1344)"></path></g><g id="SvgjsG1346"><path id="SvgjsPath1347" d="M812.0000152587891 231.99998664855957L766.0000152587891 231.99998664855957L766.0000152587891 231.99998664855957L722.6000152587891 231.99998664855957" stroke="#323232" stroke-width="2" fill="none" marker-end="url(#SvgjsMarker1348)"></path></g><g id="SvgjsG1350"><path id="SvgjsPath1351" d="M650.0000152587891 199.99998664855957L650.0000152587891 116.49998664855954L693.4002189535865 116.03828235393405" stroke="#323232" stroke-width="2" fill="none" marker-end="url(#SvgjsMarker1352)"></path></g></svg>